{
  "asset": {
    "generator": "glTF-Transform v4.5.0",
    "version": "2.0"
  },
  "accessors": [
    {
      "type": "SCALAR",
      "componentType": 5123,
      "count": 2388,
      "normalized": false,
      "byteOffset": 0,
      "bufferView": 0
    },
    {
      "type": "VEC4",
      "componentType": 5121,
      "count": 519,
      "normalized": true,
      "byteOffset": 0,
      "bufferView": 1
    },
    {
      "type": "VEC3",
      "componentType": 5122,
      "count": 519,
      "max": [
        22582,
        32767,
        21850
      ],
      "min": [
        -22582,
        -32767,
        -21850
      ],
      "normalized": true,
      "byteOffset": 0,
      "bufferView": 2
    },
    {
      "type": "VEC3",
      "componentType": 5122,
      "count": 519,
      "normalized": true,
      "byteOffset": 0,
      "bufferView": 3
    },
    {
      "type": "VEC2",
      "componentType": 5123,
      "count": 519,
      "normalized": true,
      "byteOffset": 0,
      "bufferView": 4
    }
  ],
  "bufferViews": [
    {
      "buffer": 1,
      "byteOffset": 0,
      "byteLength": 4776,
      "target": 34963,
      "extensions": {
        "EXT_meshopt_compression": {
          "buffer": 0,
          "byteOffset": 0,
          "byteLength": 886,
          "mode": "TRIANGLES",
          "byteStride": 2,
          "count": 2388
        }
      }
    },
    {
      "buffer": 1,
      "byteOffset": 4776,
      "byteLength": 2076,
      "target": 34962,
      "byteStride": 4,
      "extensions": {
        "EXT_meshopt_compression": {
          "buffer": 0,
          "byteOffset": 888,
          "byteLength": 69,
          "mode": "ATTRIBUTES",
          "byteStride": 4,
          "count": 519
        }
      }
    },
    {
      "buffer": 1,
      "byteOffset": 6852,
      "byteLength": 4152,
      "target": 34962,
      "byteStride": 8,
      "extensions": {
        "EXT_meshopt_compression": {
          "buffer": 0,
          "byteOffset": 960,
          "byteLength": 2641,
          "mode": "ATTRIBUTES",
          "byteStride": 8,
          "count": 519
        }
      }
    },
    {
      "buffer": 1,
      "byteOffset": 11004,
      "byteLength": 4152,
      "target": 34962,
      "byteStride": 8,
      "extensions": {
        "EXT_meshopt_compression": {
          "buffer": 0,
          "byteOffset": 3604,
          "byteLength": 3169,
          "mode": "ATTRIBUTES",
          "byteStride": 8,
          "count": 519
        }
      }
    },
    {
      "buffer": 1,
      "byteOffset": 15156,
      "byteLength": 2076,
      "target": 34962,
      "byteStride": 4,
      "extensions": {
        "EXT_meshopt_compression": {
          "buffer": 0,
          "byteOffset": 6776,
          "byteLength": 1646,
          "mode": "ATTRIBUTES",
          "byteStride": 4,
          "count": 519
        }
      }
    }
  ],
  "samplers": [
    {
      "magFilter": 9729,
      "minFilter": 9987,
      "wrapS": 10497,
      "wrapT": 10497
    }
  ],
  "textures": [
    {
      "sampler": 0,
      "extensions": {
        "EXT_texture_webp": {
          "source": 1
        }
      }
    },
    {
      "sampler": 0,
      "extensions": {
        "EXT_texture_webp": {
          "source": 0
        }
      }
    }
  ],
  "images": [
    {
      "name": "Leaves_n",
      "mimeType": "image/webp",
      "uri": "Leaves_n.webp"
    },
    {
      "name": "Leaves",
      "mimeType": "image/webp",
      "uri": "Leaves.webp"
    }
  ],
  "buffers": [
    {
      "uri": "Clover_1.bin",
      "byteLength": 8424
    },
    {
      "byteLength": 17232,
      "extensions": {
        "EXT_meshopt_compression": {
          "fallback": true
        }
      }
    }
  ],
  "materials": [
    {
      "name": "Leaves",
      "alphaMode": "MASK",
      "alphaCutoff": 0.4,
      "doubleSided": true,
      "pbrMetallicRoughness": {
        "roughnessFactor": 0.550000011920929,
        "metallicFactor": 0,
        "baseColorTexture": {
          "index": 0
        }
      },
      "normalTexture": {
        "index": 1
      }
    }
  ],
  "meshes": [
    {
      "name": "Cylinder.018",
      "primitives": [
        {
          "attributes": {
            "COLOR_0": 1,
            "POSITION": 2,
            "NORMAL": 3,
            "TEXCOORD_0": 4
          },
          "mode": 4,
          "material": 0,
          "indices": 0
        }
      ]
    }
  ],
  "nodes": [
    {
      "name": "Clover_1",
      "translation": [
        -0.10499054193496704,
        0.5637809229083359,
        -0.01514744758605957
      ],
      "scale": [
        0.5765731143765152,
        0.5765731143765152,
        0.5765731143765152
      ],
      "mesh": 0
    }
  ],
  "scenes": [
    {
      "name": "Scene",
      "nodes": [
        0
      ]
    }
  ],
  "scene": 0,
  "extensionsUsed": [
    "EXT_meshopt_compression",
    "EXT_texture_webp",
    "KHR_mesh_quantization"
  ],
  "extensionsRequired": [
    "EXT_meshopt_compression",
    "EXT_texture_webp",
    "KHR_mesh_quantization"
  ]
}