{
  "asset": {
    "generator": "glTF-Transform v4.5.0",
    "version": "2.0"
  },
  "accessors": [
    {
      "type": "SCALAR",
      "componentType": 5123,
      "count": 3456,
      "normalized": false,
      "byteOffset": 0,
      "bufferView": 0
    },
    {
      "type": "VEC4",
      "componentType": 5121,
      "count": 774,
      "normalized": true,
      "byteOffset": 0,
      "bufferView": 1
    },
    {
      "type": "VEC3",
      "componentType": 5122,
      "count": 774,
      "max": [
        32767,
        7972,
        30743
      ],
      "min": [
        -32767,
        -7972,
        -30743
      ],
      "normalized": true,
      "byteOffset": 0,
      "bufferView": 2
    },
    {
      "type": "VEC3",
      "componentType": 5122,
      "count": 774,
      "normalized": true,
      "byteOffset": 0,
      "bufferView": 3
    },
    {
      "type": "VEC2",
      "componentType": 5123,
      "count": 774,
      "normalized": true,
      "byteOffset": 0,
      "bufferView": 4
    }
  ],
  "bufferViews": [
    {
      "buffer": 1,
      "byteOffset": 0,
      "byteLength": 6912,
      "target": 34963,
      "extensions": {
        "EXT_meshopt_compression": {
          "buffer": 0,
          "byteOffset": 0,
          "byteLength": 1285,
          "mode": "TRIANGLES",
          "byteStride": 2,
          "count": 3456
        }
      }
    },
    {
      "buffer": 1,
      "byteOffset": 6912,
      "byteLength": 3096,
      "target": 34962,
      "byteStride": 4,
      "extensions": {
        "EXT_meshopt_compression": {
          "buffer": 0,
          "byteOffset": 1288,
          "byteLength": 85,
          "mode": "ATTRIBUTES",
          "byteStride": 4,
          "count": 774
        }
      }
    },
    {
      "buffer": 1,
      "byteOffset": 10008,
      "byteLength": 6192,
      "target": 34962,
      "byteStride": 8,
      "extensions": {
        "EXT_meshopt_compression": {
          "buffer": 0,
          "byteOffset": 1376,
          "byteLength": 4180,
          "mode": "ATTRIBUTES",
          "byteStride": 8,
          "count": 774
        }
      }
    },
    {
      "buffer": 1,
      "byteOffset": 16200,
      "byteLength": 6192,
      "target": 34962,
      "byteStride": 8,
      "extensions": {
        "EXT_meshopt_compression": {
          "buffer": 0,
          "byteOffset": 5556,
          "byteLength": 4551,
          "mode": "ATTRIBUTES",
          "byteStride": 8,
          "count": 774
        }
      }
    },
    {
      "buffer": 1,
      "byteOffset": 22392,
      "byteLength": 3096,
      "target": 34962,
      "byteStride": 4,
      "extensions": {
        "EXT_meshopt_compression": {
          "buffer": 0,
          "byteOffset": 10108,
          "byteLength": 2968,
          "mode": "ATTRIBUTES",
          "byteStride": 4,
          "count": 774
        }
      }
    }
  ],
  "samplers": [
    {
      "magFilter": 9729,
      "minFilter": 9987,
      "wrapS": 10497,
      "wrapT": 10497
    }
  ],
  "textures": [
    {
      "sampler": 0,
      "extensions": {
        "EXT_texture_webp": {
          "source": 1
        }
      }
    },
    {
      "sampler": 0,
      "extensions": {
        "EXT_texture_webp": {
          "source": 0
        }
      }
    }
  ],
  "images": [
    {
      "name": "Leaves_n",
      "mimeType": "image/webp",
      "uri": "Leaves_n.webp"
    },
    {
      "name": "Leaves",
      "mimeType": "image/webp",
      "uri": "Leaves.webp"
    }
  ],
  "buffers": [
    {
      "uri": "Fern_1.bin",
      "byteLength": 13076
    },
    {
      "byteLength": 25488,
      "extensions": {
        "EXT_meshopt_compression": {
          "fallback": true
        }
      }
    }
  ],
  "materials": [
    {
      "name": "Leaves",
      "alphaMode": "MASK",
      "alphaCutoff": 0.4,
      "doubleSided": true,
      "pbrMetallicRoughness": {
        "roughnessFactor": 0.550000011920929,
        "metallicFactor": 0,
        "baseColorTexture": {
          "index": 0
        }
      },
      "normalTexture": {
        "index": 1
      }
    }
  ],
  "meshes": [
    {
      "name": "Plane.023",
      "primitives": [
        {
          "attributes": {
            "COLOR_0": 1,
            "POSITION": 2,
            "NORMAL": 3,
            "TEXCOORD_0": 4
          },
          "mode": 4,
          "material": 0,
          "indices": 0
        }
      ]
    }
  ],
  "nodes": [
    {
      "name": "Fern_1",
      "translation": [
        0.03222411870956421,
        0.30195698142051697,
        0.04761439561843872
      ],
      "scale": [
        1.4134369492530823,
        1.4134369492530823,
        1.4134369492530823
      ],
      "mesh": 0
    }
  ],
  "scenes": [
    {
      "name": "Scene",
      "nodes": [
        0
      ]
    }
  ],
  "scene": 0,
  "extensionsUsed": [
    "EXT_meshopt_compression",
    "EXT_texture_webp",
    "KHR_mesh_quantization"
  ],
  "extensionsRequired": [
    "EXT_meshopt_compression",
    "EXT_texture_webp",
    "KHR_mesh_quantization"
  ]
}