{
  "asset": {
    "generator": "glTF-Transform v4.5.0",
    "version": "2.0"
  },
  "accessors": [
    {
      "type": "SCALAR",
      "componentType": 5123,
      "count": 774,
      "normalized": false,
      "byteOffset": 0,
      "bufferView": 0
    },
    {
      "type": "VEC4",
      "componentType": 5121,
      "count": 157,
      "normalized": true,
      "byteOffset": 0,
      "bufferView": 1
    },
    {
      "type": "SCALAR",
      "componentType": 5123,
      "count": 5760,
      "normalized": false,
      "byteOffset": 1548,
      "bufferView": 0
    },
    {
      "type": "VEC2",
      "componentType": 5126,
      "count": 1264,
      "normalized": false,
      "byteOffset": 0,
      "bufferView": 2
    },
    {
      "type": "VEC4",
      "componentType": 5121,
      "count": 1264,
      "normalized": true,
      "byteOffset": 0,
      "bufferView": 3
    },
    {
      "type": "VEC3",
      "componentType": 5122,
      "count": 157,
      "max": [
        14485,
        30067,
        5776
      ],
      "min": [
        -14485,
        -32767,
        -9441
      ],
      "normalized": true,
      "byteOffset": 0,
      "bufferView": 4
    },
    {
      "type": "VEC3",
      "componentType": 5122,
      "count": 157,
      "normalized": true,
      "byteOffset": 0,
      "bufferView": 5
    },
    {
      "type": "VEC2",
      "componentType": 5123,
      "count": 157,
      "normalized": true,
      "byteOffset": 0,
      "bufferView": 6
    },
    {
      "type": "VEC3",
      "componentType": 5122,
      "count": 1264,
      "max": [
        9353,
        32767,
        10621
      ],
      "min": [
        -11645,
        -1496,
        -10621
      ],
      "normalized": true,
      "byteOffset": 0,
      "bufferView": 7
    },
    {
      "type": "VEC3",
      "componentType": 5122,
      "count": 1264,
      "normalized": true,
      "byteOffset": 0,
      "bufferView": 8
    }
  ],
  "bufferViews": [
    {
      "buffer": 1,
      "byteOffset": 0,
      "byteLength": 13068,
      "target": 34963,
      "extensions": {
        "EXT_meshopt_compression": {
          "buffer": 0,
          "byteOffset": 0,
          "byteLength": 2364,
          "mode": "TRIANGLES",
          "byteStride": 2,
          "count": 6534
        }
      }
    },
    {
      "buffer": 1,
      "byteOffset": 13068,
      "byteLength": 628,
      "target": 34962,
      "byteStride": 4,
      "extensions": {
        "EXT_meshopt_compression": {
          "buffer": 0,
          "byteOffset": 2364,
          "byteLength": 45,
          "mode": "ATTRIBUTES",
          "byteStride": 4,
          "count": 157
        }
      }
    },
    {
      "buffer": 1,
      "byteOffset": 13696,
      "byteLength": 10112,
      "target": 34962,
      "byteStride": 8,
      "extensions": {
        "EXT_meshopt_compression": {
          "buffer": 0,
          "byteOffset": 2412,
          "byteLength": 7643,
          "mode": "ATTRIBUTES",
          "byteStride": 8,
          "count": 1264
        }
      }
    },
    {
      "buffer": 1,
      "byteOffset": 23808,
      "byteLength": 5056,
      "target": 34962,
      "byteStride": 4,
      "extensions": {
        "EXT_meshopt_compression": {
          "buffer": 0,
          "byteOffset": 10056,
          "byteLength": 113,
          "mode": "ATTRIBUTES",
          "byteStride": 4,
          "count": 1264
        }
      }
    },
    {
      "buffer": 1,
      "byteOffset": 28864,
      "byteLength": 1256,
      "target": 34962,
      "byteStride": 8,
      "extensions": {
        "EXT_meshopt_compression": {
          "buffer": 0,
          "byteOffset": 10172,
          "byteLength": 859,
          "mode": "ATTRIBUTES",
          "byteStride": 8,
          "count": 157
        }
      }
    },
    {
      "buffer": 1,
      "byteOffset": 30120,
      "byteLength": 1256,
      "target": 34962,
      "byteStride": 8,
      "extensions": {
        "EXT_meshopt_compression": {
          "buffer": 0,
          "byteOffset": 11032,
          "byteLength": 947,
          "mode": "ATTRIBUTES",
          "byteStride": 8,
          "count": 157
        }
      }
    },
    {
      "buffer": 1,
      "byteOffset": 31376,
      "byteLength": 628,
      "target": 34962,
      "byteStride": 4,
      "extensions": {
        "EXT_meshopt_compression": {
          "buffer": 0,
          "byteOffset": 11980,
          "byteLength": 551,
          "mode": "ATTRIBUTES",
          "byteStride": 4,
          "count": 157
        }
      }
    },
    {
      "buffer": 1,
      "byteOffset": 32004,
      "byteLength": 10112,
      "target": 34962,
      "byteStride": 8,
      "extensions": {
        "EXT_meshopt_compression": {
          "buffer": 0,
          "byteOffset": 12532,
          "byteLength": 6248,
          "mode": "ATTRIBUTES",
          "byteStride": 8,
          "count": 1264
        }
      }
    },
    {
      "buffer": 1,
      "byteOffset": 42116,
      "byteLength": 10112,
      "target": 34962,
      "byteStride": 8,
      "extensions": {
        "EXT_meshopt_compression": {
          "buffer": 0,
          "byteOffset": 18780,
          "byteLength": 7383,
          "mode": "ATTRIBUTES",
          "byteStride": 8,
          "count": 1264
        }
      }
    }
  ],
  "samplers": [
    {
      "magFilter": 9729,
      "minFilter": 9987,
      "wrapS": 10497,
      "wrapT": 10497
    }
  ],
  "textures": [
    {
      "sampler": 0,
      "extensions": {
        "EXT_texture_webp": {
          "source": 1
        }
      }
    },
    {
      "sampler": 0,
      "extensions": {
        "EXT_texture_webp": {
          "source": 0
        }
      }
    },
    {
      "sampler": 0,
      "extensions": {
        "EXT_texture_webp": {
          "source": 3
        }
      }
    },
    {
      "sampler": 0,
      "extensions": {
        "EXT_texture_webp": {
          "source": 2
        }
      }
    }
  ],
  "images": [
    {
      "name": "Leaves_n",
      "mimeType": "image/webp",
      "uri": "Leaves_n.webp"
    },
    {
      "name": "Leaves",
      "mimeType": "image/webp",
      "uri": "Leaves.webp"
    },
    {
      "name": "Flowers_n",
      "mimeType": "image/webp",
      "uri": "Flowers_n.webp"
    },
    {
      "name": "Flowers",
      "mimeType": "image/webp",
      "uri": "Flowers.webp"
    }
  ],
  "buffers": [
    {
      "uri": "Flower_4_Single.bin",
      "byteLength": 26164
    },
    {
      "byteLength": 52228,
      "extensions": {
        "EXT_meshopt_compression": {
          "fallback": true
        }
      }
    }
  ],
  "materials": [
    {
      "name": "Leaves",
      "alphaMode": "MASK",
      "alphaCutoff": 0.4,
      "doubleSided": true,
      "pbrMetallicRoughness": {
        "roughnessFactor": 0.550000011920929,
        "metallicFactor": 0,
        "baseColorTexture": {
          "index": 0
        }
      },
      "normalTexture": {
        "index": 1
      }
    },
    {
      "name": "Flowers",
      "alphaMode": "MASK",
      "alphaCutoff": 0.4,
      "doubleSided": true,
      "pbrMetallicRoughness": {
        "roughnessFactor": 0.5,
        "metallicFactor": 0,
        "baseColorTexture": {
          "index": 2
        }
      },
      "normalTexture": {
        "index": 3
      }
    }
  ],
  "meshes": [
    {
      "name": "Plane.001",
      "primitives": [
        {
          "attributes": {
            "COLOR_0": 1,
            "POSITION": 5,
            "NORMAL": 6,
            "TEXCOORD_0": 7
          },
          "mode": 4,
          "material": 0,
          "indices": 0
        },
        {
          "attributes": {
            "TEXCOORD_0": 3,
            "COLOR_0": 4,
            "POSITION": 8,
            "NORMAL": 9
          },
          "mode": 4,
          "material": 1,
          "indices": 2
        }
      ]
    }
  ],
  "nodes": [
    {
      "name": "Flower_4_Single",
      "translation": [
        0.031658172607421875,
        1.1843265490606427,
        -0.014626234769821167
      ],
      "scale": [
        1.209730009548366,
        1.209730009548366,
        1.209730009548366
      ],
      "mesh": 0
    }
  ],
  "scenes": [
    {
      "name": "Scene",
      "nodes": [
        0
      ]
    }
  ],
  "scene": 0,
  "extensionsUsed": [
    "EXT_meshopt_compression",
    "EXT_texture_webp",
    "KHR_mesh_quantization"
  ],
  "extensionsRequired": [
    "EXT_meshopt_compression",
    "EXT_texture_webp",
    "KHR_mesh_quantization"
  ]
}