{
  "asset": {
    "generator": "glTF-Transform v4.5.0",
    "version": "2.0"
  },
  "accessors": [
    {
      "type": "SCALAR",
      "componentType": 5123,
      "count": 2070,
      "normalized": false,
      "byteOffset": 0,
      "bufferView": 0
    },
    {
      "type": "VEC4",
      "componentType": 5121,
      "count": 498,
      "normalized": true,
      "byteOffset": 0,
      "bufferView": 1
    },
    {
      "type": "SCALAR",
      "componentType": 5123,
      "count": 180,
      "normalized": false,
      "byteOffset": 4140,
      "bufferView": 0
    },
    {
      "type": "VEC4",
      "componentType": 5121,
      "count": 46,
      "normalized": true,
      "byteOffset": 0,
      "bufferView": 2
    },
    {
      "type": "VEC3",
      "componentType": 5122,
      "count": 498,
      "max": [
        13825,
        22190,
        13457
      ],
      "min": [
        -14005,
        -32767,
        -13457
      ],
      "normalized": true,
      "byteOffset": 0,
      "bufferView": 3
    },
    {
      "type": "VEC3",
      "componentType": 5122,
      "count": 498,
      "normalized": true,
      "byteOffset": 0,
      "bufferView": 4
    },
    {
      "type": "VEC2",
      "componentType": 5123,
      "count": 498,
      "normalized": true,
      "byteOffset": 0,
      "bufferView": 5
    },
    {
      "type": "VEC3",
      "componentType": 5122,
      "count": 46,
      "max": [
        14005,
        32767,
        13445
      ],
      "min": [
        -7580,
        21682,
        -8993
      ],
      "normalized": true,
      "byteOffset": 0,
      "bufferView": 6
    },
    {
      "type": "VEC3",
      "componentType": 5122,
      "count": 46,
      "normalized": true,
      "byteOffset": 0,
      "bufferView": 7
    },
    {
      "type": "VEC2",
      "componentType": 5123,
      "count": 46,
      "normalized": true,
      "byteOffset": 0,
      "bufferView": 8
    }
  ],
  "bufferViews": [
    {
      "buffer": 1,
      "byteOffset": 0,
      "byteLength": 4500,
      "target": 34963,
      "extensions": {
        "EXT_meshopt_compression": {
          "buffer": 0,
          "byteOffset": 0,
          "byteLength": 845,
          "mode": "TRIANGLES",
          "byteStride": 2,
          "count": 2250
        }
      }
    },
    {
      "buffer": 1,
      "byteOffset": 4500,
      "byteLength": 1992,
      "target": 34962,
      "byteStride": 4,
      "extensions": {
        "EXT_meshopt_compression": {
          "buffer": 0,
          "byteOffset": 848,
          "byteLength": 65,
          "mode": "ATTRIBUTES",
          "byteStride": 4,
          "count": 498
        }
      }
    },
    {
      "buffer": 1,
      "byteOffset": 6492,
      "byteLength": 184,
      "target": 34962,
      "byteStride": 4,
      "extensions": {
        "EXT_meshopt_compression": {
          "buffer": 0,
          "byteOffset": 916,
          "byteLength": 37,
          "mode": "ATTRIBUTES",
          "byteStride": 4,
          "count": 46
        }
      }
    },
    {
      "buffer": 1,
      "byteOffset": 6676,
      "byteLength": 3984,
      "target": 34962,
      "byteStride": 8,
      "extensions": {
        "EXT_meshopt_compression": {
          "buffer": 0,
          "byteOffset": 956,
          "byteLength": 2568,
          "mode": "ATTRIBUTES",
          "byteStride": 8,
          "count": 498
        }
      }
    },
    {
      "buffer": 1,
      "byteOffset": 10660,
      "byteLength": 3984,
      "target": 34962,
      "byteStride": 8,
      "extensions": {
        "EXT_meshopt_compression": {
          "buffer": 0,
          "byteOffset": 3524,
          "byteLength": 3031,
          "mode": "ATTRIBUTES",
          "byteStride": 8,
          "count": 498
        }
      }
    },
    {
      "buffer": 1,
      "byteOffset": 14644,
      "byteLength": 1992,
      "target": 34962,
      "byteStride": 4,
      "extensions": {
        "EXT_meshopt_compression": {
          "buffer": 0,
          "byteOffset": 6556,
          "byteLength": 1878,
          "mode": "ATTRIBUTES",
          "byteStride": 4,
          "count": 498
        }
      }
    },
    {
      "buffer": 1,
      "byteOffset": 16636,
      "byteLength": 368,
      "target": 34962,
      "byteStride": 8,
      "extensions": {
        "EXT_meshopt_compression": {
          "buffer": 0,
          "byteOffset": 8436,
          "byteLength": 327,
          "mode": "ATTRIBUTES",
          "byteStride": 8,
          "count": 46
        }
      }
    },
    {
      "buffer": 1,
      "byteOffset": 17004,
      "byteLength": 368,
      "target": 34962,
      "byteStride": 8,
      "extensions": {
        "EXT_meshopt_compression": {
          "buffer": 0,
          "byteOffset": 8764,
          "byteLength": 317,
          "mode": "ATTRIBUTES",
          "byteStride": 8,
          "count": 46
        }
      }
    },
    {
      "buffer": 1,
      "byteOffset": 17372,
      "byteLength": 184,
      "target": 34962,
      "byteStride": 4,
      "extensions": {
        "EXT_meshopt_compression": {
          "buffer": 0,
          "byteOffset": 9084,
          "byteLength": 229,
          "mode": "ATTRIBUTES",
          "byteStride": 4,
          "count": 46
        }
      }
    }
  ],
  "samplers": [
    {
      "magFilter": 9729,
      "minFilter": 9987,
      "wrapS": 10497,
      "wrapT": 10497
    }
  ],
  "textures": [
    {
      "sampler": 0,
      "extensions": {
        "EXT_texture_webp": {
          "source": 1
        }
      }
    },
    {
      "sampler": 0,
      "extensions": {
        "EXT_texture_webp": {
          "source": 0
        }
      }
    },
    {
      "sampler": 0,
      "extensions": {
        "EXT_texture_webp": {
          "source": 3
        }
      }
    },
    {
      "sampler": 0,
      "extensions": {
        "EXT_texture_webp": {
          "source": 2
        }
      }
    }
  ],
  "images": [
    {
      "name": "Leaves_n",
      "mimeType": "image/webp",
      "uri": "Leaves_n.webp"
    },
    {
      "name": "Leaves",
      "mimeType": "image/webp",
      "uri": "Leaves.webp"
    },
    {
      "name": "Flowers_n",
      "mimeType": "image/webp",
      "uri": "Flowers_n.webp"
    },
    {
      "name": "Flowers",
      "mimeType": "image/webp",
      "uri": "Flowers.webp"
    }
  ],
  "buffers": [
    {
      "uri": "Flower_3_Single.bin",
      "byteLength": 9316
    },
    {
      "byteLength": 17556,
      "extensions": {
        "EXT_meshopt_compression": {
          "fallback": true
        }
      }
    }
  ],
  "materials": [
    {
      "name": "Leaves",
      "alphaMode": "MASK",
      "alphaCutoff": 0.4,
      "doubleSided": true,
      "pbrMetallicRoughness": {
        "roughnessFactor": 0.550000011920929,
        "metallicFactor": 0,
        "baseColorTexture": {
          "index": 0
        }
      },
      "normalTexture": {
        "index": 1
      }
    },
    {
      "name": "Flowers",
      "alphaMode": "MASK",
      "alphaCutoff": 0.4,
      "doubleSided": true,
      "pbrMetallicRoughness": {
        "roughnessFactor": 0.5,
        "metallicFactor": 0,
        "baseColorTexture": {
          "index": 2
        }
      },
      "normalTexture": {
        "index": 3
      }
    }
  ],
  "meshes": [
    {
      "name": "Plane.020",
      "primitives": [
        {
          "attributes": {
            "COLOR_0": 1,
            "POSITION": 4,
            "NORMAL": 5,
            "TEXCOORD_0": 6
          },
          "mode": 4,
          "material": 0,
          "indices": 0
        },
        {
          "attributes": {
            "COLOR_0": 3,
            "POSITION": 7,
            "NORMAL": 8,
            "TEXCOORD_0": 9
          },
          "mode": 4,
          "material": 1,
          "indices": 2
        }
      ]
    }
  ],
  "nodes": [
    {
      "name": "Flower_3_Single",
      "translation": [
        -0.024831056594848633,
        1.0495451586320996,
        -0.08260300755500793
      ],
      "scale": [
        1.0666622025892138,
        1.0666622025892138,
        1.0666622025892138
      ],
      "mesh": 0
    }
  ],
  "scenes": [
    {
      "name": "Scene",
      "nodes": [
        0
      ]
    }
  ],
  "scene": 0,
  "extensionsUsed": [
    "EXT_meshopt_compression",
    "EXT_texture_webp",
    "KHR_mesh_quantization"
  ],
  "extensionsRequired": [
    "EXT_meshopt_compression",
    "EXT_texture_webp",
    "KHR_mesh_quantization"
  ]
}