{
  "asset": {
    "generator": "glTF-Transform v4.5.0",
    "version": "2.0"
  },
  "accessors": [
    {
      "type": "SCALAR",
      "componentType": 5123,
      "count": 3978,
      "normalized": false,
      "byteOffset": 0,
      "bufferView": 0
    },
    {
      "type": "VEC4",
      "componentType": 5121,
      "count": 1092,
      "normalized": true,
      "byteOffset": 0,
      "bufferView": 1
    },
    {
      "type": "VEC3",
      "componentType": 5122,
      "count": 1092,
      "max": [
        30251,
        32767,
        31243
      ],
      "min": [
        -30251,
        -32767,
        -31243
      ],
      "normalized": true,
      "byteOffset": 0,
      "bufferView": 2
    },
    {
      "type": "VEC3",
      "componentType": 5122,
      "count": 1092,
      "normalized": true,
      "byteOffset": 0,
      "bufferView": 3
    },
    {
      "type": "VEC2",
      "componentType": 5123,
      "count": 1092,
      "normalized": true,
      "byteOffset": 0,
      "bufferView": 4
    }
  ],
  "bufferViews": [
    {
      "buffer": 1,
      "byteOffset": 0,
      "byteLength": 7956,
      "target": 34963,
      "extensions": {
        "EXT_meshopt_compression": {
          "buffer": 0,
          "byteOffset": 0,
          "byteLength": 1343,
          "mode": "TRIANGLES",
          "byteStride": 2,
          "count": 3978
        }
      }
    },
    {
      "buffer": 1,
      "byteOffset": 7956,
      "byteLength": 4368,
      "target": 34962,
      "byteStride": 4,
      "extensions": {
        "EXT_meshopt_compression": {
          "buffer": 0,
          "byteOffset": 1344,
          "byteLength": 1638,
          "mode": "ATTRIBUTES",
          "byteStride": 4,
          "count": 1092
        }
      }
    },
    {
      "buffer": 1,
      "byteOffset": 12324,
      "byteLength": 8736,
      "target": 34962,
      "byteStride": 8,
      "extensions": {
        "EXT_meshopt_compression": {
          "buffer": 0,
          "byteOffset": 2984,
          "byteLength": 5542,
          "mode": "ATTRIBUTES",
          "byteStride": 8,
          "count": 1092
        }
      }
    },
    {
      "buffer": 1,
      "byteOffset": 21060,
      "byteLength": 8736,
      "target": 34962,
      "byteStride": 8,
      "extensions": {
        "EXT_meshopt_compression": {
          "buffer": 0,
          "byteOffset": 8528,
          "byteLength": 6460,
          "mode": "ATTRIBUTES",
          "byteStride": 8,
          "count": 1092
        }
      }
    },
    {
      "buffer": 1,
      "byteOffset": 29796,
      "byteLength": 4368,
      "target": 34962,
      "byteStride": 4,
      "extensions": {
        "EXT_meshopt_compression": {
          "buffer": 0,
          "byteOffset": 14988,
          "byteLength": 3869,
          "mode": "ATTRIBUTES",
          "byteStride": 4,
          "count": 1092
        }
      }
    }
  ],
  "samplers": [
    {
      "magFilter": 9729,
      "minFilter": 9987,
      "wrapS": 10497,
      "wrapT": 10497
    }
  ],
  "textures": [
    {
      "sampler": 0,
      "extensions": {
        "EXT_texture_webp": {
          "source": 1
        }
      }
    },
    {
      "sampler": 0,
      "extensions": {
        "EXT_texture_webp": {
          "source": 0
        }
      }
    }
  ],
  "images": [
    {
      "name": "GrassBlades_n",
      "mimeType": "image/webp",
      "uri": "GrassBlades_n.webp"
    },
    {
      "name": "GrassBlades",
      "mimeType": "image/webp",
      "uri": "GrassBlades.webp"
    }
  ],
  "buffers": [
    {
      "uri": "Grass_Wispy_Tall.bin",
      "byteLength": 18860
    },
    {
      "byteLength": 34164,
      "extensions": {
        "EXT_meshopt_compression": {
          "fallback": true
        }
      }
    }
  ],
  "materials": [
    {
      "name": "Grass",
      "doubleSided": true,
      "pbrMetallicRoughness": {
        "roughnessFactor": 0.6000000238418579,
        "metallicFactor": 0,
        "baseColorTexture": {
          "index": 0
        }
      },
      "normalTexture": {
        "index": 1
      }
    }
  ],
  "meshes": [
    {
      "name": "Plane.017_refined",
      "primitives": [
        {
          "attributes": {
            "COLOR_0": 1,
            "POSITION": 2,
            "NORMAL": 3,
            "TEXCOORD_0": 4
          },
          "mode": 4,
          "material": 0,
          "indices": 0
        }
      ]
    }
  ],
  "nodes": [
    {
      "name": "Grass_Wispy_Tall",
      "translation": [
        0.030791640281677246,
        0.8016116861253977,
        -0.020253121852874756
      ],
      "scale": [
        0.8341388460248709,
        0.8341388460248709,
        0.8341388460248709
      ],
      "mesh": 0
    }
  ],
  "scenes": [
    {
      "name": "Scene",
      "nodes": [
        0
      ]
    }
  ],
  "scene": 0,
  "extensionsUsed": [
    "EXT_meshopt_compression",
    "EXT_texture_webp",
    "KHR_mesh_quantization"
  ],
  "extensionsRequired": [
    "EXT_meshopt_compression",
    "EXT_texture_webp",
    "KHR_mesh_quantization"
  ]
}