{
  "asset": {
    "generator": "glTF-Transform v4.5.0",
    "version": "2.0"
  },
  "accessors": [
    {
      "type": "SCALAR",
      "componentType": 5123,
      "count": 1260,
      "normalized": false,
      "byteOffset": 0,
      "bufferView": 0
    },
    {
      "type": "VEC4",
      "componentType": 5121,
      "count": 350,
      "normalized": true,
      "byteOffset": 0,
      "bufferView": 1
    },
    {
      "type": "VEC3",
      "componentType": 5122,
      "count": 350,
      "max": [
        15649,
        32767,
        17362
      ],
      "min": [
        -15649,
        -32767,
        -17362
      ],
      "normalized": true,
      "byteOffset": 0,
      "bufferView": 2
    },
    {
      "type": "VEC3",
      "componentType": 5122,
      "count": 350,
      "normalized": true,
      "byteOffset": 0,
      "bufferView": 3
    },
    {
      "type": "VEC2",
      "componentType": 5123,
      "count": 350,
      "normalized": true,
      "byteOffset": 0,
      "bufferView": 4
    }
  ],
  "bufferViews": [
    {
      "buffer": 1,
      "byteOffset": 0,
      "byteLength": 2520,
      "target": 34963,
      "extensions": {
        "EXT_meshopt_compression": {
          "buffer": 0,
          "byteOffset": 0,
          "byteLength": 437,
          "mode": "TRIANGLES",
          "byteStride": 2,
          "count": 1260
        }
      }
    },
    {
      "buffer": 1,
      "byteOffset": 2520,
      "byteLength": 1400,
      "target": 34962,
      "byteStride": 4,
      "extensions": {
        "EXT_meshopt_compression": {
          "buffer": 0,
          "byteOffset": 440,
          "byteLength": 558,
          "mode": "ATTRIBUTES",
          "byteStride": 4,
          "count": 350
        }
      }
    },
    {
      "buffer": 1,
      "byteOffset": 3920,
      "byteLength": 2800,
      "target": 34962,
      "byteStride": 8,
      "extensions": {
        "EXT_meshopt_compression": {
          "buffer": 0,
          "byteOffset": 1000,
          "byteLength": 1864,
          "mode": "ATTRIBUTES",
          "byteStride": 8,
          "count": 350
        }
      }
    },
    {
      "buffer": 1,
      "byteOffset": 6720,
      "byteLength": 2800,
      "target": 34962,
      "byteStride": 8,
      "extensions": {
        "EXT_meshopt_compression": {
          "buffer": 0,
          "byteOffset": 2864,
          "byteLength": 2017,
          "mode": "ATTRIBUTES",
          "byteStride": 8,
          "count": 350
        }
      }
    },
    {
      "buffer": 1,
      "byteOffset": 9520,
      "byteLength": 1400,
      "target": 34962,
      "byteStride": 4,
      "extensions": {
        "EXT_meshopt_compression": {
          "buffer": 0,
          "byteOffset": 4884,
          "byteLength": 1190,
          "mode": "ATTRIBUTES",
          "byteStride": 4,
          "count": 350
        }
      }
    }
  ],
  "samplers": [
    {
      "magFilter": 9729,
      "minFilter": 9987,
      "wrapS": 10497,
      "wrapT": 10497
    }
  ],
  "textures": [
    {
      "sampler": 0,
      "extensions": {
        "EXT_texture_webp": {
          "source": 1
        }
      }
    },
    {
      "sampler": 0,
      "extensions": {
        "EXT_texture_webp": {
          "source": 0
        }
      }
    }
  ],
  "images": [
    {
      "name": "GrassBlades_n",
      "mimeType": "image/webp",
      "uri": "GrassBlades_n.webp"
    },
    {
      "name": "GrassBlades",
      "mimeType": "image/webp",
      "uri": "GrassBlades.webp"
    }
  ],
  "buffers": [
    {
      "uri": "Grass_Common_Tall.bin",
      "byteLength": 6076
    },
    {
      "byteLength": 10920,
      "extensions": {
        "EXT_meshopt_compression": {
          "fallback": true
        }
      }
    }
  ],
  "materials": [
    {
      "name": "Grass",
      "doubleSided": true,
      "pbrMetallicRoughness": {
        "roughnessFactor": 0.6000000238418579,
        "metallicFactor": 0,
        "baseColorTexture": {
          "index": 0
        }
      },
      "normalTexture": {
        "index": 1
      }
    }
  ],
  "meshes": [
    {
      "name": "Plane.013_refined",
      "primitives": [
        {
          "attributes": {
            "COLOR_0": 1,
            "POSITION": 2,
            "NORMAL": 3,
            "TEXCOORD_0": 4
          },
          "mode": 4,
          "material": 0,
          "indices": 0
        }
      ]
    }
  ],
  "nodes": [
    {
      "name": "Grass_Common_Tall",
      "translation": [
        0.04397696256637573,
        0.9041446875780821,
        0.017522573471069336
      ],
      "scale": [
        0.9371883440762758,
        0.9371883440762758,
        0.9371883440762758
      ],
      "mesh": 0
    }
  ],
  "scenes": [
    {
      "name": "Scene",
      "nodes": [
        0
      ]
    }
  ],
  "scene": 0,
  "extensionsUsed": [
    "EXT_meshopt_compression",
    "EXT_texture_webp",
    "KHR_mesh_quantization"
  ],
  "extensionsRequired": [
    "EXT_meshopt_compression",
    "EXT_texture_webp",
    "KHR_mesh_quantization"
  ]
}