{
  "asset": {
    "generator": "glTF-Transform v4.5.0",
    "version": "2.0"
  },
  "accessors": [
    {
      "type": "SCALAR",
      "componentType": 5123,
      "count": 702,
      "normalized": false,
      "byteOffset": 0,
      "bufferView": 0
    },
    {
      "type": "VEC4",
      "componentType": 5121,
      "count": 198,
      "normalized": true,
      "byteOffset": 0,
      "bufferView": 1
    },
    {
      "type": "VEC3",
      "componentType": 5122,
      "count": 198,
      "max": [
        15825,
        32767,
        18114
      ],
      "min": [
        -15825,
        -32767,
        -18114
      ],
      "normalized": true,
      "byteOffset": 0,
      "bufferView": 2
    },
    {
      "type": "VEC3",
      "componentType": 5122,
      "count": 198,
      "normalized": true,
      "byteOffset": 0,
      "bufferView": 3
    },
    {
      "type": "VEC2",
      "componentType": 5123,
      "count": 198,
      "normalized": true,
      "byteOffset": 0,
      "bufferView": 4
    }
  ],
  "bufferViews": [
    {
      "buffer": 1,
      "byteOffset": 0,
      "byteLength": 1404,
      "target": 34963,
      "extensions": {
        "EXT_meshopt_compression": {
          "buffer": 0,
          "byteOffset": 0,
          "byteLength": 251,
          "mode": "TRIANGLES",
          "byteStride": 2,
          "count": 702
        }
      }
    },
    {
      "buffer": 1,
      "byteOffset": 1404,
      "byteLength": 792,
      "target": 34962,
      "byteStride": 4,
      "extensions": {
        "EXT_meshopt_compression": {
          "buffer": 0,
          "byteOffset": 252,
          "byteLength": 331,
          "mode": "ATTRIBUTES",
          "byteStride": 4,
          "count": 198
        }
      }
    },
    {
      "buffer": 1,
      "byteOffset": 2196,
      "byteLength": 1584,
      "target": 34962,
      "byteStride": 8,
      "extensions": {
        "EXT_meshopt_compression": {
          "buffer": 0,
          "byteOffset": 584,
          "byteLength": 1136,
          "mode": "ATTRIBUTES",
          "byteStride": 8,
          "count": 198
        }
      }
    },
    {
      "buffer": 1,
      "byteOffset": 3780,
      "byteLength": 1584,
      "target": 34962,
      "byteStride": 8,
      "extensions": {
        "EXT_meshopt_compression": {
          "buffer": 0,
          "byteOffset": 1720,
          "byteLength": 1198,
          "mode": "ATTRIBUTES",
          "byteStride": 8,
          "count": 198
        }
      }
    },
    {
      "buffer": 1,
      "byteOffset": 5364,
      "byteLength": 792,
      "target": 34962,
      "byteStride": 4,
      "extensions": {
        "EXT_meshopt_compression": {
          "buffer": 0,
          "byteOffset": 2920,
          "byteLength": 747,
          "mode": "ATTRIBUTES",
          "byteStride": 4,
          "count": 198
        }
      }
    }
  ],
  "samplers": [
    {
      "magFilter": 9729,
      "minFilter": 9987,
      "wrapS": 10497,
      "wrapT": 10497
    }
  ],
  "textures": [
    {
      "sampler": 0,
      "extensions": {
        "EXT_texture_webp": {
          "source": 1
        }
      }
    },
    {
      "sampler": 0,
      "extensions": {
        "EXT_texture_webp": {
          "source": 0
        }
      }
    }
  ],
  "images": [
    {
      "name": "GrassBlades_n",
      "mimeType": "image/webp",
      "uri": "GrassBlades_n.webp"
    },
    {
      "name": "GrassBlades",
      "mimeType": "image/webp",
      "uri": "GrassBlades.webp"
    }
  ],
  "buffers": [
    {
      "uri": "Grass_Common_Short.bin",
      "byteLength": 3668
    },
    {
      "byteLength": 6156,
      "extensions": {
        "EXT_meshopt_compression": {
          "fallback": true
        }
      }
    }
  ],
  "materials": [
    {
      "name": "Grass",
      "doubleSided": true,
      "pbrMetallicRoughness": {
        "roughnessFactor": 0.6000000238418579,
        "metallicFactor": 0,
        "baseColorTexture": {
          "index": 0
        }
      },
      "normalTexture": {
        "index": 1
      }
    }
  ],
  "meshes": [
    {
      "name": "Plane.014_refined",
      "primitives": [
        {
          "attributes": {
            "COLOR_0": 1,
            "POSITION": 2,
            "NORMAL": 3,
            "TEXCOORD_0": 4
          },
          "mode": 4,
          "material": 0,
          "indices": 0
        }
      ]
    }
  ],
  "nodes": [
    {
      "name": "Grass_Common_Short",
      "translation": [
        -0.038843363523483276,
        0.644896182231605,
        -0.11074553430080414
      ],
      "scale": [
        0.6668220432475209,
        0.6668220432475209,
        0.6668220432475209
      ],
      "mesh": 0
    }
  ],
  "scenes": [
    {
      "name": "Scene",
      "nodes": [
        0
      ]
    }
  ],
  "scene": 0,
  "extensionsUsed": [
    "EXT_meshopt_compression",
    "EXT_texture_webp",
    "KHR_mesh_quantization"
  ],
  "extensionsRequired": [
    "EXT_meshopt_compression",
    "EXT_texture_webp",
    "KHR_mesh_quantization"
  ]
}