{
  "asset": {
    "generator": "glTF-Transform v4.5.0",
    "version": "2.0"
  },
  "accessors": [
    {
      "type": "SCALAR",
      "componentType": 5123,
      "count": 1314,
      "normalized": false,
      "byteOffset": 0,
      "bufferView": 0
    },
    {
      "type": "VEC2",
      "componentType": 5126,
      "count": 269,
      "normalized": false,
      "byteOffset": 0,
      "bufferView": 1
    },
    {
      "type": "VEC3",
      "componentType": 5122,
      "count": 269,
      "max": [
        27819,
        5092,
        32767
      ],
      "min": [
        -27819,
        -5092,
        -32767
      ],
      "normalized": true,
      "byteOffset": 0,
      "bufferView": 2
    },
    {
      "type": "VEC3",
      "componentType": 5122,
      "count": 269,
      "normalized": true,
      "byteOffset": 0,
      "bufferView": 3
    }
  ],
  "bufferViews": [
    {
      "buffer": 1,
      "byteOffset": 0,
      "byteLength": 2628,
      "target": 34963,
      "extensions": {
        "EXT_meshopt_compression": {
          "buffer": 0,
          "byteOffset": 0,
          "byteLength": 491,
          "mode": "TRIANGLES",
          "byteStride": 2,
          "count": 1314
        }
      }
    },
    {
      "buffer": 1,
      "byteOffset": 2628,
      "byteLength": 2152,
      "target": 34962,
      "byteStride": 8,
      "extensions": {
        "EXT_meshopt_compression": {
          "buffer": 0,
          "byteOffset": 492,
          "byteLength": 1242,
          "mode": "ATTRIBUTES",
          "byteStride": 8,
          "count": 269
        }
      }
    },
    {
      "buffer": 1,
      "byteOffset": 4780,
      "byteLength": 2152,
      "target": 34962,
      "byteStride": 8,
      "extensions": {
        "EXT_meshopt_compression": {
          "buffer": 0,
          "byteOffset": 1736,
          "byteLength": 1369,
          "mode": "ATTRIBUTES",
          "byteStride": 8,
          "count": 269
        }
      }
    },
    {
      "buffer": 1,
      "byteOffset": 6932,
      "byteLength": 2152,
      "target": 34962,
      "byteStride": 8,
      "extensions": {
        "EXT_meshopt_compression": {
          "buffer": 0,
          "byteOffset": 3108,
          "byteLength": 1283,
          "mode": "ATTRIBUTES",
          "byteStride": 8,
          "count": 269
        }
      }
    }
  ],
  "samplers": [
    {
      "magFilter": 9729,
      "minFilter": 9987,
      "wrapS": 10497,
      "wrapT": 10497
    }
  ],
  "textures": [
    {
      "sampler": 0,
      "extensions": {
        "EXT_texture_webp": {
          "source": 1
        }
      }
    },
    {
      "sampler": 0,
      "extensions": {
        "EXT_texture_webp": {
          "source": 0
        }
      }
    }
  ],
  "images": [
    {
      "name": "Litter_n",
      "mimeType": "image/webp",
      "uri": "Litter_n.webp"
    },
    {
      "name": "Litter",
      "mimeType": "image/webp",
      "uri": "Litter.webp"
    }
  ],
  "buffers": [
    {
      "uri": "Litter_Maple.bin",
      "byteLength": 4392
    },
    {
      "byteLength": 9084,
      "extensions": {
        "EXT_meshopt_compression": {
          "fallback": true
        }
      }
    }
  ],
  "materials": [
    {
      "name": "Litter",
      "alphaMode": "MASK",
      "alphaCutoff": 0.4,
      "doubleSided": true,
      "pbrMetallicRoughness": {
        "roughnessFactor": 0.6200000047683716,
        "metallicFactor": 0,
        "baseColorTexture": {
          "index": 0
        }
      },
      "normalTexture": {
        "index": 1
      }
    }
  ],
  "meshes": [
    {
      "name": "Litter_Maple",
      "primitives": [
        {
          "attributes": {
            "TEXCOORD_0": 1,
            "POSITION": 2,
            "NORMAL": 3
          },
          "mode": 4,
          "material": 0,
          "indices": 0
        }
      ]
    }
  ],
  "nodes": [
    {
      "name": "Litter_Maple",
      "translation": [
        -0.0004940927028656006,
        0.07471702247858047,
        -0.0071623921394348145
      ],
      "scale": [
        0.48075753450393677,
        0.48075753450393677,
        0.48075753450393677
      ],
      "mesh": 0
    }
  ],
  "scenes": [
    {
      "name": "Scene",
      "nodes": [
        0
      ]
    }
  ],
  "scene": 0,
  "extensionsUsed": [
    "EXT_meshopt_compression",
    "EXT_texture_webp",
    "KHR_mesh_quantization"
  ],
  "extensionsRequired": [
    "EXT_meshopt_compression",
    "EXT_texture_webp",
    "KHR_mesh_quantization"
  ]
}