{
  "asset": {
    "generator": "glTF-Transform v4.5.0",
    "version": "2.0"
  },
  "accessors": [
    {
      "type": "SCALAR",
      "componentType": 5123,
      "count": 1860,
      "normalized": false,
      "byteOffset": 0,
      "bufferView": 0
    },
    {
      "type": "VEC2",
      "componentType": 5126,
      "count": 449,
      "normalized": false,
      "byteOffset": 0,
      "bufferView": 1
    },
    {
      "type": "VEC4",
      "componentType": 5121,
      "count": 449,
      "normalized": true,
      "byteOffset": 0,
      "bufferView": 2
    },
    {
      "type": "VEC3",
      "componentType": 5122,
      "count": 449,
      "max": [
        32767,
        11681,
        23250
      ],
      "min": [
        -32767,
        -11681,
        -23250
      ],
      "normalized": true,
      "byteOffset": 0,
      "bufferView": 3
    },
    {
      "type": "VEC3",
      "componentType": 5122,
      "count": 449,
      "normalized": true,
      "byteOffset": 0,
      "bufferView": 4
    }
  ],
  "bufferViews": [
    {
      "buffer": 1,
      "byteOffset": 0,
      "byteLength": 3720,
      "target": 34963,
      "extensions": {
        "EXT_meshopt_compression": {
          "buffer": 0,
          "byteOffset": 0,
          "byteLength": 724,
          "mode": "TRIANGLES",
          "byteStride": 2,
          "count": 1860
        }
      }
    },
    {
      "buffer": 1,
      "byteOffset": 3720,
      "byteLength": 3592,
      "target": 34962,
      "byteStride": 8,
      "extensions": {
        "EXT_meshopt_compression": {
          "buffer": 0,
          "byteOffset": 724,
          "byteLength": 3052,
          "mode": "ATTRIBUTES",
          "byteStride": 8,
          "count": 449
        }
      }
    },
    {
      "buffer": 1,
      "byteOffset": 7312,
      "byteLength": 1796,
      "target": 34962,
      "byteStride": 4,
      "extensions": {
        "EXT_meshopt_compression": {
          "buffer": 0,
          "byteOffset": 3776,
          "byteLength": 829,
          "mode": "ATTRIBUTES",
          "byteStride": 4,
          "count": 449
        }
      }
    },
    {
      "buffer": 1,
      "byteOffset": 9108,
      "byteLength": 3592,
      "target": 34962,
      "byteStride": 8,
      "extensions": {
        "EXT_meshopt_compression": {
          "buffer": 0,
          "byteOffset": 4608,
          "byteLength": 2600,
          "mode": "ATTRIBUTES",
          "byteStride": 8,
          "count": 449
        }
      }
    },
    {
      "buffer": 1,
      "byteOffset": 12700,
      "byteLength": 3592,
      "target": 34962,
      "byteStride": 8,
      "extensions": {
        "EXT_meshopt_compression": {
          "buffer": 0,
          "byteOffset": 7208,
          "byteLength": 2795,
          "mode": "ATTRIBUTES",
          "byteStride": 8,
          "count": 449
        }
      }
    }
  ],
  "samplers": [
    {
      "magFilter": 9729,
      "minFilter": 9987,
      "wrapS": 10497,
      "wrapT": 10497
    }
  ],
  "textures": [
    {
      "sampler": 0,
      "extensions": {
        "EXT_texture_webp": {
          "source": 1
        }
      }
    },
    {
      "sampler": 0,
      "extensions": {
        "EXT_texture_webp": {
          "source": 0
        }
      }
    }
  ],
  "images": [
    {
      "name": "Stone_n",
      "mimeType": "image/webp",
      "uri": "Stone_n.webp"
    },
    {
      "name": "Stone",
      "mimeType": "image/webp",
      "uri": "Stone.webp"
    }
  ],
  "buffers": [
    {
      "uri": "Pebble_Square_2.bin",
      "byteLength": 10004
    },
    {
      "byteLength": 16292,
      "extensions": {
        "EXT_meshopt_compression": {
          "fallback": true
        }
      }
    }
  ],
  "materials": [
    {
      "name": "Stone",
      "pbrMetallicRoughness": {
        "roughnessFactor": 0.5,
        "metallicFactor": 0,
        "baseColorTexture": {
          "index": 0
        }
      },
      "normalTexture": {
        "index": 1
      }
    }
  ],
  "meshes": [
    {
      "name": "Cube.017_Retopology.002",
      "primitives": [
        {
          "attributes": {
            "TEXCOORD_0": 1,
            "COLOR_0": 2,
            "POSITION": 3,
            "NORMAL": 4
          },
          "mode": 4,
          "material": 0,
          "indices": 0
        }
      ]
    }
  ],
  "nodes": [
    {
      "name": "Pebble_Square_2",
      "translation": [
        -0.0034849345684051514,
        0.06263099703937769,
        0.020789142698049545
      ],
      "scale": [
        0.19487375020980835,
        0.19487375020980835,
        0.19487375020980835
      ],
      "mesh": 0
    }
  ],
  "scenes": [
    {
      "name": "Scene",
      "nodes": [
        0
      ]
    }
  ],
  "scene": 0,
  "extensionsUsed": [
    "EXT_meshopt_compression",
    "EXT_texture_webp",
    "KHR_mesh_quantization"
  ],
  "extensionsRequired": [
    "EXT_meshopt_compression",
    "EXT_texture_webp",
    "KHR_mesh_quantization"
  ]
}