{
  "asset": {
    "generator": "glTF-Transform v4.5.0",
    "version": "2.0"
  },
  "accessors": [
    {
      "type": "SCALAR",
      "componentType": 5123,
      "count": 1860,
      "normalized": false,
      "byteOffset": 0,
      "bufferView": 0
    },
    {
      "type": "VEC2",
      "componentType": 5126,
      "count": 419,
      "normalized": false,
      "byteOffset": 0,
      "bufferView": 1
    },
    {
      "type": "VEC4",
      "componentType": 5121,
      "count": 419,
      "normalized": true,
      "byteOffset": 0,
      "bufferView": 2
    },
    {
      "type": "VEC3",
      "componentType": 5122,
      "count": 419,
      "max": [
        31867,
        9837,
        32767
      ],
      "min": [
        -31867,
        -9837,
        -32767
      ],
      "normalized": true,
      "byteOffset": 0,
      "bufferView": 3
    },
    {
      "type": "VEC3",
      "componentType": 5122,
      "count": 419,
      "normalized": true,
      "byteOffset": 0,
      "bufferView": 4
    }
  ],
  "bufferViews": [
    {
      "buffer": 1,
      "byteOffset": 0,
      "byteLength": 3720,
      "target": 34963,
      "extensions": {
        "EXT_meshopt_compression": {
          "buffer": 0,
          "byteOffset": 0,
          "byteLength": 712,
          "mode": "TRIANGLES",
          "byteStride": 2,
          "count": 1860
        }
      }
    },
    {
      "buffer": 1,
      "byteOffset": 3720,
      "byteLength": 3352,
      "target": 34962,
      "byteStride": 8,
      "extensions": {
        "EXT_meshopt_compression": {
          "buffer": 0,
          "byteOffset": 712,
          "byteLength": 2856,
          "mode": "ATTRIBUTES",
          "byteStride": 8,
          "count": 419
        }
      }
    },
    {
      "buffer": 1,
      "byteOffset": 7072,
      "byteLength": 1676,
      "target": 34962,
      "byteStride": 4,
      "extensions": {
        "EXT_meshopt_compression": {
          "buffer": 0,
          "byteOffset": 3568,
          "byteLength": 775,
          "mode": "ATTRIBUTES",
          "byteStride": 4,
          "count": 419
        }
      }
    },
    {
      "buffer": 1,
      "byteOffset": 8748,
      "byteLength": 3352,
      "target": 34962,
      "byteStride": 8,
      "extensions": {
        "EXT_meshopt_compression": {
          "buffer": 0,
          "byteOffset": 4344,
          "byteLength": 2403,
          "mode": "ATTRIBUTES",
          "byteStride": 8,
          "count": 419
        }
      }
    },
    {
      "buffer": 1,
      "byteOffset": 12100,
      "byteLength": 3352,
      "target": 34962,
      "byteStride": 8,
      "extensions": {
        "EXT_meshopt_compression": {
          "buffer": 0,
          "byteOffset": 6748,
          "byteLength": 2546,
          "mode": "ATTRIBUTES",
          "byteStride": 8,
          "count": 419
        }
      }
    }
  ],
  "samplers": [
    {
      "magFilter": 9729,
      "minFilter": 9987,
      "wrapS": 10497,
      "wrapT": 10497
    }
  ],
  "textures": [
    {
      "sampler": 0,
      "extensions": {
        "EXT_texture_webp": {
          "source": 1
        }
      }
    },
    {
      "sampler": 0,
      "extensions": {
        "EXT_texture_webp": {
          "source": 0
        }
      }
    }
  ],
  "images": [
    {
      "name": "Stone_n",
      "mimeType": "image/webp",
      "uri": "Stone_n.webp"
    },
    {
      "name": "Stone",
      "mimeType": "image/webp",
      "uri": "Stone.webp"
    }
  ],
  "buffers": [
    {
      "uri": "Pebble_Square_1.bin",
      "byteLength": 9296
    },
    {
      "byteLength": 15452,
      "extensions": {
        "EXT_meshopt_compression": {
          "fallback": true
        }
      }
    }
  ],
  "materials": [
    {
      "name": "Stone",
      "pbrMetallicRoughness": {
        "roughnessFactor": 0.5,
        "metallicFactor": 0,
        "baseColorTexture": {
          "index": 0
        }
      },
      "normalTexture": {
        "index": 1
      }
    }
  ],
  "meshes": [
    {
      "name": "Cube.017_Retopology.002",
      "primitives": [
        {
          "attributes": {
            "TEXCOORD_0": 1,
            "COLOR_0": 2,
            "POSITION": 3,
            "NORMAL": 4
          },
          "mode": 4,
          "material": 0,
          "indices": 0
        }
      ]
    }
  ],
  "nodes": [
    {
      "name": "Pebble_Square_1",
      "translation": [
        -0.015208274126052856,
        0.05717581929638982,
        0.019960984587669373
      ],
      "scale": [
        0.22199656069278717,
        0.22199656069278717,
        0.22199656069278717
      ],
      "mesh": 0
    }
  ],
  "scenes": [
    {
      "name": "Scene",
      "nodes": [
        0
      ]
    }
  ],
  "scene": 0,
  "extensionsUsed": [
    "EXT_meshopt_compression",
    "EXT_texture_webp",
    "KHR_mesh_quantization"
  ],
  "extensionsRequired": [
    "EXT_meshopt_compression",
    "EXT_texture_webp",
    "KHR_mesh_quantization"
  ]
}