{
  "asset": {
    "generator": "glTF-Transform v4.5.0",
    "version": "2.0"
  },
  "accessors": [
    {
      "type": "SCALAR",
      "componentType": 5123,
      "count": 1680,
      "normalized": false,
      "byteOffset": 0,
      "bufferView": 0
    },
    {
      "type": "VEC2",
      "componentType": 5126,
      "count": 462,
      "normalized": false,
      "byteOffset": 0,
      "bufferView": 1
    },
    {
      "type": "VEC4",
      "componentType": 5121,
      "count": 462,
      "normalized": true,
      "byteOffset": 0,
      "bufferView": 2
    },
    {
      "type": "VEC3",
      "componentType": 5122,
      "count": 462,
      "max": [
        32767,
        7052,
        24046
      ],
      "min": [
        -32767,
        -7052,
        -24046
      ],
      "normalized": true,
      "byteOffset": 0,
      "bufferView": 3
    },
    {
      "type": "VEC3",
      "componentType": 5122,
      "count": 462,
      "normalized": true,
      "byteOffset": 0,
      "bufferView": 4
    }
  ],
  "bufferViews": [
    {
      "buffer": 1,
      "byteOffset": 0,
      "byteLength": 3360,
      "target": 34963,
      "extensions": {
        "EXT_meshopt_compression": {
          "buffer": 0,
          "byteOffset": 0,
          "byteLength": 645,
          "mode": "TRIANGLES",
          "byteStride": 2,
          "count": 1680
        }
      }
    },
    {
      "buffer": 1,
      "byteOffset": 3360,
      "byteLength": 3696,
      "target": 34962,
      "byteStride": 8,
      "extensions": {
        "EXT_meshopt_compression": {
          "buffer": 0,
          "byteOffset": 648,
          "byteLength": 3091,
          "mode": "ATTRIBUTES",
          "byteStride": 8,
          "count": 462
        }
      }
    },
    {
      "buffer": 1,
      "byteOffset": 7056,
      "byteLength": 1848,
      "target": 34962,
      "byteStride": 4,
      "extensions": {
        "EXT_meshopt_compression": {
          "buffer": 0,
          "byteOffset": 3740,
          "byteLength": 1036,
          "mode": "ATTRIBUTES",
          "byteStride": 4,
          "count": 462
        }
      }
    },
    {
      "buffer": 1,
      "byteOffset": 8904,
      "byteLength": 3696,
      "target": 34962,
      "byteStride": 8,
      "extensions": {
        "EXT_meshopt_compression": {
          "buffer": 0,
          "byteOffset": 4776,
          "byteLength": 2711,
          "mode": "ATTRIBUTES",
          "byteStride": 8,
          "count": 462
        }
      }
    },
    {
      "buffer": 1,
      "byteOffset": 12600,
      "byteLength": 3696,
      "target": 34962,
      "byteStride": 8,
      "extensions": {
        "EXT_meshopt_compression": {
          "buffer": 0,
          "byteOffset": 7488,
          "byteLength": 2878,
          "mode": "ATTRIBUTES",
          "byteStride": 8,
          "count": 462
        }
      }
    }
  ],
  "samplers": [
    {
      "magFilter": 9729,
      "minFilter": 9987,
      "wrapS": 10497,
      "wrapT": 10497
    }
  ],
  "textures": [
    {
      "sampler": 0,
      "extensions": {
        "EXT_texture_webp": {
          "source": 1
        }
      }
    },
    {
      "sampler": 0,
      "extensions": {
        "EXT_texture_webp": {
          "source": 0
        }
      }
    }
  ],
  "images": [
    {
      "name": "Stone_n",
      "mimeType": "image/webp",
      "uri": "Stone_n.webp"
    },
    {
      "name": "Stone",
      "mimeType": "image/webp",
      "uri": "Stone.webp"
    }
  ],
  "buffers": [
    {
      "uri": "Pebble_Round_1.bin",
      "byteLength": 10368
    },
    {
      "byteLength": 16296,
      "extensions": {
        "EXT_meshopt_compression": {
          "fallback": true
        }
      }
    }
  ],
  "materials": [
    {
      "name": "Stone",
      "pbrMetallicRoughness": {
        "roughnessFactor": 0.5,
        "metallicFactor": 0,
        "baseColorTexture": {
          "index": 0
        }
      },
      "normalTexture": {
        "index": 1
      }
    }
  ],
  "meshes": [
    {
      "name": "Cube.017_Retopology.001",
      "primitives": [
        {
          "attributes": {
            "TEXCOORD_0": 1,
            "COLOR_0": 2,
            "POSITION": 3,
            "NORMAL": 4
          },
          "mode": 4,
          "material": 0,
          "indices": 0
        }
      ]
    }
  ],
  "nodes": [
    {
      "name": "Pebble_Round_1",
      "translation": [
        0.026984333992004395,
        0.04017513059079647,
        0.0236252099275589
      ],
      "scale": [
        0.23645061254501343,
        0.23645061254501343,
        0.23645061254501343
      ],
      "mesh": 0
    }
  ],
  "scenes": [
    {
      "name": "Scene",
      "nodes": [
        0
      ]
    }
  ],
  "scene": 0,
  "extensionsUsed": [
    "EXT_meshopt_compression",
    "EXT_texture_webp",
    "KHR_mesh_quantization"
  ],
  "extensionsRequired": [
    "EXT_meshopt_compression",
    "EXT_texture_webp",
    "KHR_mesh_quantization"
  ]
}