{
  "asset": {
    "generator": "glTF-Transform v4.5.0",
    "version": "2.0"
  },
  "accessors": [
    {
      "type": "SCALAR",
      "componentType": 5123,
      "count": 1680,
      "normalized": false,
      "byteOffset": 0,
      "bufferView": 0
    },
    {
      "type": "VEC2",
      "componentType": 5126,
      "count": 435,
      "normalized": false,
      "byteOffset": 0,
      "bufferView": 1
    },
    {
      "type": "VEC4",
      "componentType": 5121,
      "count": 435,
      "normalized": true,
      "byteOffset": 0,
      "bufferView": 2
    },
    {
      "type": "VEC3",
      "componentType": 5122,
      "count": 435,
      "max": [
        32767,
        8221,
        29715
      ],
      "min": [
        -32767,
        -8221,
        -29715
      ],
      "normalized": true,
      "byteOffset": 0,
      "bufferView": 3
    },
    {
      "type": "VEC3",
      "componentType": 5122,
      "count": 435,
      "normalized": true,
      "byteOffset": 0,
      "bufferView": 4
    }
  ],
  "bufferViews": [
    {
      "buffer": 1,
      "byteOffset": 0,
      "byteLength": 3360,
      "target": 34963,
      "extensions": {
        "EXT_meshopt_compression": {
          "buffer": 0,
          "byteOffset": 0,
          "byteLength": 625,
          "mode": "TRIANGLES",
          "byteStride": 2,
          "count": 1680
        }
      }
    },
    {
      "buffer": 1,
      "byteOffset": 3360,
      "byteLength": 3480,
      "target": 34962,
      "byteStride": 8,
      "extensions": {
        "EXT_meshopt_compression": {
          "buffer": 0,
          "byteOffset": 628,
          "byteLength": 2950,
          "mode": "ATTRIBUTES",
          "byteStride": 8,
          "count": 435
        }
      }
    },
    {
      "buffer": 1,
      "byteOffset": 6840,
      "byteLength": 1740,
      "target": 34962,
      "byteStride": 4,
      "extensions": {
        "EXT_meshopt_compression": {
          "buffer": 0,
          "byteOffset": 3580,
          "byteLength": 941,
          "mode": "ATTRIBUTES",
          "byteStride": 4,
          "count": 435
        }
      }
    },
    {
      "buffer": 1,
      "byteOffset": 8580,
      "byteLength": 3480,
      "target": 34962,
      "byteStride": 8,
      "extensions": {
        "EXT_meshopt_compression": {
          "buffer": 0,
          "byteOffset": 4524,
          "byteLength": 2591,
          "mode": "ATTRIBUTES",
          "byteStride": 8,
          "count": 435
        }
      }
    },
    {
      "buffer": 1,
      "byteOffset": 12060,
      "byteLength": 3480,
      "target": 34962,
      "byteStride": 8,
      "extensions": {
        "EXT_meshopt_compression": {
          "buffer": 0,
          "byteOffset": 7116,
          "byteLength": 2716,
          "mode": "ATTRIBUTES",
          "byteStride": 8,
          "count": 435
        }
      }
    }
  ],
  "samplers": [
    {
      "magFilter": 9729,
      "minFilter": 9987,
      "wrapS": 10497,
      "wrapT": 10497
    }
  ],
  "textures": [
    {
      "sampler": 0,
      "extensions": {
        "EXT_texture_webp": {
          "source": 1
        }
      }
    },
    {
      "sampler": 0,
      "extensions": {
        "EXT_texture_webp": {
          "source": 0
        }
      }
    }
  ],
  "images": [
    {
      "name": "Stone_n",
      "mimeType": "image/webp",
      "uri": "Stone_n.webp"
    },
    {
      "name": "Stone",
      "mimeType": "image/webp",
      "uri": "Stone.webp"
    }
  ],
  "buffers": [
    {
      "uri": "Pebble_Round_2.bin",
      "byteLength": 9832
    },
    {
      "byteLength": 15540,
      "extensions": {
        "EXT_meshopt_compression": {
          "fallback": true
        }
      }
    }
  ],
  "materials": [
    {
      "name": "Stone",
      "pbrMetallicRoughness": {
        "roughnessFactor": 0.5,
        "metallicFactor": 0,
        "baseColorTexture": {
          "index": 0
        }
      },
      "normalTexture": {
        "index": 1
      }
    }
  ],
  "meshes": [
    {
      "name": "Cube.017_Retopology.001",
      "primitives": [
        {
          "attributes": {
            "TEXCOORD_0": 1,
            "COLOR_0": 2,
            "POSITION": 3,
            "NORMAL": 4
          },
          "mode": 4,
          "material": 0,
          "indices": 0
        }
      ]
    }
  ],
  "nodes": [
    {
      "name": "Pebble_Round_2",
      "translation": [
        0.015413932502269745,
        0.048480758210644126,
        -0.01622152328491211
      ],
      "scale": [
        0.20984474569559097,
        0.20984474569559097,
        0.20984474569559097
      ],
      "mesh": 0
    }
  ],
  "scenes": [
    {
      "name": "Scene",
      "nodes": [
        0
      ]
    }
  ],
  "scene": 0,
  "extensionsUsed": [
    "EXT_meshopt_compression",
    "EXT_texture_webp",
    "KHR_mesh_quantization"
  ],
  "extensionsRequired": [
    "EXT_meshopt_compression",
    "EXT_texture_webp",
    "KHR_mesh_quantization"
  ]
}