{
  "asset": {
    "generator": "glTF-Transform v4.5.0",
    "version": "2.0"
  },
  "accessors": [
    {
      "type": "SCALAR",
      "componentType": 5123,
      "count": 180,
      "normalized": false,
      "byteOffset": 0,
      "bufferView": 0
    },
    {
      "type": "VEC3",
      "componentType": 5122,
      "count": 46,
      "max": [
        32767,
        14129,
        32051
      ],
      "min": [
        -32767,
        -14129,
        -32051
      ],
      "normalized": true,
      "byteOffset": 0,
      "bufferView": 1
    },
    {
      "type": "VEC3",
      "componentType": 5122,
      "count": 46,
      "normalized": true,
      "byteOffset": 0,
      "bufferView": 2
    },
    {
      "type": "VEC2",
      "componentType": 5123,
      "count": 46,
      "normalized": true,
      "byteOffset": 0,
      "bufferView": 3
    }
  ],
  "bufferViews": [
    {
      "buffer": 1,
      "byteOffset": 0,
      "byteLength": 360,
      "target": 34963,
      "extensions": {
        "EXT_meshopt_compression": {
          "buffer": 0,
          "byteOffset": 0,
          "byteLength": 88,
          "mode": "TRIANGLES",
          "byteStride": 2,
          "count": 180
        }
      }
    },
    {
      "buffer": 1,
      "byteOffset": 360,
      "byteLength": 368,
      "target": 34962,
      "byteStride": 8,
      "extensions": {
        "EXT_meshopt_compression": {
          "buffer": 0,
          "byteOffset": 88,
          "byteLength": 329,
          "mode": "ATTRIBUTES",
          "byteStride": 8,
          "count": 46
        }
      }
    },
    {
      "buffer": 1,
      "byteOffset": 728,
      "byteLength": 368,
      "target": 34962,
      "byteStride": 8,
      "extensions": {
        "EXT_meshopt_compression": {
          "buffer": 0,
          "byteOffset": 420,
          "byteLength": 313,
          "mode": "ATTRIBUTES",
          "byteStride": 8,
          "count": 46
        }
      }
    },
    {
      "buffer": 1,
      "byteOffset": 1096,
      "byteLength": 184,
      "target": 34962,
      "byteStride": 4,
      "extensions": {
        "EXT_meshopt_compression": {
          "buffer": 0,
          "byteOffset": 736,
          "byteLength": 229,
          "mode": "ATTRIBUTES",
          "byteStride": 4,
          "count": 46
        }
      }
    }
  ],
  "samplers": [
    {
      "magFilter": 9729,
      "minFilter": 9987,
      "wrapS": 10497,
      "wrapT": 10497
    }
  ],
  "textures": [
    {
      "sampler": 0,
      "extensions": {
        "EXT_texture_webp": {
          "source": 1
        }
      }
    },
    {
      "sampler": 0,
      "extensions": {
        "EXT_texture_webp": {
          "source": 0
        }
      }
    }
  ],
  "images": [
    {
      "name": "Flowers_n",
      "mimeType": "image/webp",
      "uri": "Flowers_n.webp"
    },
    {
      "name": "Flowers",
      "mimeType": "image/webp",
      "uri": "Flowers.webp"
    }
  ],
  "buffers": [
    {
      "uri": "Petal_3.bin",
      "byteLength": 968
    },
    {
      "byteLength": 1280,
      "extensions": {
        "EXT_meshopt_compression": {
          "fallback": true
        }
      }
    }
  ],
  "materials": [
    {
      "name": "Flowers",
      "alphaMode": "MASK",
      "alphaCutoff": 0.4,
      "doubleSided": true,
      "pbrMetallicRoughness": {
        "roughnessFactor": 0.5,
        "metallicFactor": 0,
        "baseColorTexture": {
          "index": 0
        }
      },
      "normalTexture": {
        "index": 1
      }
    }
  ],
  "meshes": [
    {
      "name": "Cylinder.011",
      "primitives": [
        {
          "attributes": {
            "POSITION": 1,
            "NORMAL": 2,
            "TEXCOORD_0": 3
          },
          "mode": 4,
          "material": 0,
          "indices": 0
        }
      ]
    }
  ],
  "nodes": [
    {
      "name": "Petal_3",
      "translation": [
        -0.004863083362579346,
        0.1335283662185418,
        0.03007224202156067
      ],
      "scale": [
        0.3096689283847809,
        0.3096689283847809,
        0.3096689283847809
      ],
      "mesh": 0
    }
  ],
  "scenes": [
    {
      "name": "Scene",
      "nodes": [
        0
      ]
    }
  ],
  "scene": 0,
  "extensionsUsed": [
    "EXT_meshopt_compression",
    "EXT_texture_webp",
    "KHR_mesh_quantization"
  ],
  "extensionsRequired": [
    "EXT_meshopt_compression",
    "EXT_texture_webp",
    "KHR_mesh_quantization"
  ]
}