{
  "asset": {
    "generator": "glTF-Transform v4.5.0",
    "version": "2.0"
  },
  "accessors": [
    {
      "type": "SCALAR",
      "componentType": 5123,
      "count": 1296,
      "normalized": false,
      "byteOffset": 0,
      "bufferView": 0
    },
    {
      "type": "VEC4",
      "componentType": 5121,
      "count": 294,
      "normalized": true,
      "byteOffset": 0,
      "bufferView": 1
    },
    {
      "type": "VEC3",
      "componentType": 5122,
      "count": 294,
      "max": [
        32767,
        8457,
        29507
      ],
      "min": [
        -32767,
        -8457,
        -29507
      ],
      "normalized": true,
      "byteOffset": 0,
      "bufferView": 2
    },
    {
      "type": "VEC3",
      "componentType": 5122,
      "count": 294,
      "normalized": true,
      "byteOffset": 0,
      "bufferView": 3
    },
    {
      "type": "VEC2",
      "componentType": 5123,
      "count": 294,
      "normalized": true,
      "byteOffset": 0,
      "bufferView": 4
    }
  ],
  "bufferViews": [
    {
      "buffer": 1,
      "byteOffset": 0,
      "byteLength": 2592,
      "target": 34963,
      "extensions": {
        "EXT_meshopt_compression": {
          "buffer": 0,
          "byteOffset": 0,
          "byteLength": 550,
          "mode": "TRIANGLES",
          "byteStride": 2,
          "count": 1296
        }
      }
    },
    {
      "buffer": 1,
      "byteOffset": 2592,
      "byteLength": 1176,
      "target": 34962,
      "byteStride": 4,
      "extensions": {
        "EXT_meshopt_compression": {
          "buffer": 0,
          "byteOffset": 552,
          "byteLength": 755,
          "mode": "ATTRIBUTES",
          "byteStride": 4,
          "count": 294
        }
      }
    },
    {
      "buffer": 1,
      "byteOffset": 3768,
      "byteLength": 2352,
      "target": 34962,
      "byteStride": 8,
      "extensions": {
        "EXT_meshopt_compression": {
          "buffer": 0,
          "byteOffset": 1308,
          "byteLength": 1804,
          "mode": "ATTRIBUTES",
          "byteStride": 8,
          "count": 294
        }
      }
    },
    {
      "buffer": 1,
      "byteOffset": 6120,
      "byteLength": 2352,
      "target": 34962,
      "byteStride": 8,
      "extensions": {
        "EXT_meshopt_compression": {
          "buffer": 0,
          "byteOffset": 3112,
          "byteLength": 1766,
          "mode": "ATTRIBUTES",
          "byteStride": 8,
          "count": 294
        }
      }
    },
    {
      "buffer": 1,
      "byteOffset": 8472,
      "byteLength": 1176,
      "target": 34962,
      "byteStride": 4,
      "extensions": {
        "EXT_meshopt_compression": {
          "buffer": 0,
          "byteOffset": 4880,
          "byteLength": 958,
          "mode": "ATTRIBUTES",
          "byteStride": 4,
          "count": 294
        }
      }
    }
  ],
  "samplers": [
    {
      "magFilter": 9729,
      "minFilter": 9987,
      "wrapS": 10497,
      "wrapT": 10497
    }
  ],
  "textures": [
    {
      "sampler": 0,
      "extensions": {
        "EXT_texture_webp": {
          "source": 1
        }
      }
    },
    {
      "sampler": 0,
      "extensions": {
        "EXT_texture_webp": {
          "source": 0
        }
      }
    }
  ],
  "images": [
    {
      "name": "Leaves_n",
      "mimeType": "image/webp",
      "uri": "Leaves_n.webp"
    },
    {
      "name": "Leaves",
      "mimeType": "image/webp",
      "uri": "Leaves.webp"
    }
  ],
  "buffers": [
    {
      "uri": "Plant_7.bin",
      "byteLength": 5840
    },
    {
      "byteLength": 9648,
      "extensions": {
        "EXT_meshopt_compression": {
          "fallback": true
        }
      }
    }
  ],
  "materials": [
    {
      "name": "Leaves",
      "alphaMode": "MASK",
      "alphaCutoff": 0.4,
      "doubleSided": true,
      "pbrMetallicRoughness": {
        "roughnessFactor": 0.550000011920929,
        "metallicFactor": 0,
        "baseColorTexture": {
          "index": 0
        }
      },
      "normalTexture": {
        "index": 1
      }
    }
  ],
  "meshes": [
    {
      "name": "Plane.011",
      "primitives": [
        {
          "attributes": {
            "COLOR_0": 1,
            "POSITION": 2,
            "NORMAL": 3,
            "TEXCOORD_0": 4
          },
          "mode": 4,
          "material": 0,
          "indices": 0
        }
      ]
    }
  ],
  "nodes": [
    {
      "name": "Plant_7",
      "translation": [
        0.07414121925830841,
        0.2221701741218567,
        0.020108595490455627
      ],
      "scale": [
        0.5401273220777512,
        0.5401273220777512,
        0.5401273220777512
      ],
      "mesh": 0
    }
  ],
  "scenes": [
    {
      "name": "Scene",
      "nodes": [
        0
      ]
    }
  ],
  "scene": 0,
  "extensionsUsed": [
    "EXT_meshopt_compression",
    "EXT_texture_webp",
    "KHR_mesh_quantization"
  ],
  "extensionsRequired": [
    "EXT_meshopt_compression",
    "EXT_texture_webp",
    "KHR_mesh_quantization"
  ]
}