{
  "asset": {
    "generator": "glTF-Transform v4.5.0",
    "version": "2.0"
  },
  "accessors": [
    {
      "type": "SCALAR",
      "componentType": 5123,
      "count": 4800,
      "normalized": false,
      "byteOffset": 0,
      "bufferView": 0
    },
    {
      "type": "VEC2",
      "componentType": 5126,
      "count": 1093,
      "normalized": false,
      "byteOffset": 0,
      "bufferView": 1
    },
    {
      "type": "VEC4",
      "componentType": 5121,
      "count": 1093,
      "normalized": true,
      "byteOffset": 0,
      "bufferView": 2
    },
    {
      "type": "VEC3",
      "componentType": 5122,
      "count": 1093,
      "max": [
        32767,
        23502,
        31207
      ],
      "min": [
        -32767,
        -23502,
        -31207
      ],
      "normalized": true,
      "byteOffset": 0,
      "bufferView": 3
    },
    {
      "type": "VEC3",
      "componentType": 5122,
      "count": 1093,
      "normalized": true,
      "byteOffset": 0,
      "bufferView": 4
    }
  ],
  "bufferViews": [
    {
      "buffer": 1,
      "byteOffset": 0,
      "byteLength": 9600,
      "target": 34963,
      "extensions": {
        "EXT_meshopt_compression": {
          "buffer": 0,
          "byteOffset": 0,
          "byteLength": 1802,
          "mode": "TRIANGLES",
          "byteStride": 2,
          "count": 4800
        }
      }
    },
    {
      "buffer": 1,
      "byteOffset": 9600,
      "byteLength": 8744,
      "target": 34962,
      "byteStride": 8,
      "extensions": {
        "EXT_meshopt_compression": {
          "buffer": 0,
          "byteOffset": 1804,
          "byteLength": 7188,
          "mode": "ATTRIBUTES",
          "byteStride": 8,
          "count": 1093
        }
      }
    },
    {
      "buffer": 1,
      "byteOffset": 18344,
      "byteLength": 4372,
      "target": 34962,
      "byteStride": 4,
      "extensions": {
        "EXT_meshopt_compression": {
          "buffer": 0,
          "byteOffset": 8992,
          "byteLength": 1706,
          "mode": "ATTRIBUTES",
          "byteStride": 4,
          "count": 1093
        }
      }
    },
    {
      "buffer": 1,
      "byteOffset": 22716,
      "byteLength": 8744,
      "target": 34962,
      "byteStride": 8,
      "extensions": {
        "EXT_meshopt_compression": {
          "buffer": 0,
          "byteOffset": 10700,
          "byteLength": 6292,
          "mode": "ATTRIBUTES",
          "byteStride": 8,
          "count": 1093
        }
      }
    },
    {
      "buffer": 1,
      "byteOffset": 31460,
      "byteLength": 8744,
      "target": 34962,
      "byteStride": 8,
      "extensions": {
        "EXT_meshopt_compression": {
          "buffer": 0,
          "byteOffset": 16992,
          "byteLength": 6702,
          "mode": "ATTRIBUTES",
          "byteStride": 8,
          "count": 1093
        }
      }
    }
  ],
  "samplers": [
    {
      "magFilter": 9729,
      "minFilter": 9987,
      "wrapS": 10497,
      "wrapT": 10497
    }
  ],
  "textures": [
    {
      "sampler": 0,
      "extensions": {
        "EXT_texture_webp": {
          "source": 1
        }
      }
    },
    {
      "sampler": 0,
      "extensions": {
        "EXT_texture_webp": {
          "source": 0
        }
      }
    }
  ],
  "images": [
    {
      "name": "Stone_n",
      "mimeType": "image/webp",
      "uri": "Stone_n.webp"
    },
    {
      "name": "Stone",
      "mimeType": "image/webp",
      "uri": "Stone.webp"
    }
  ],
  "buffers": [
    {
      "uri": "Rock_Medium_1.bin",
      "byteLength": 23696
    },
    {
      "byteLength": 40204,
      "extensions": {
        "EXT_meshopt_compression": {
          "fallback": true
        }
      }
    }
  ],
  "materials": [
    {
      "name": "Stone",
      "pbrMetallicRoughness": {
        "roughnessFactor": 0.5,
        "metallicFactor": 0,
        "baseColorTexture": {
          "index": 0
        }
      },
      "normalTexture": {
        "index": 1
      }
    }
  ],
  "meshes": [
    {
      "name": "Cube.005_Retopology.001",
      "primitives": [
        {
          "attributes": {
            "TEXCOORD_0": 1,
            "COLOR_0": 2,
            "POSITION": 3,
            "NORMAL": 4
          },
          "mode": 4,
          "material": 0,
          "indices": 0
        }
      ]
    }
  ],
  "nodes": [
    {
      "name": "Rock_Medium_1",
      "translation": [
        -0.09362506866455078,
        0.8670528829097748,
        0.3403138518333435
      ],
      "scale": [
        1.6021381616592407,
        1.6021381616592407,
        1.6021381616592407
      ],
      "mesh": 0
    }
  ],
  "scenes": [
    {
      "name": "Scene",
      "nodes": [
        0
      ]
    }
  ],
  "scene": 0,
  "extensionsUsed": [
    "EXT_meshopt_compression",
    "EXT_texture_webp",
    "KHR_mesh_quantization"
  ],
  "extensionsRequired": [
    "EXT_meshopt_compression",
    "EXT_texture_webp",
    "KHR_mesh_quantization"
  ]
}